# OBJ written from D:\Documents\GitHub\shantypunk\meshes\shippingContainers\Mesh_153.obj
# Units	meters

o Mesh_153
v -2.05627 1.19209e-07 2.0828
v -2.05627 2.01549 2.0828
v 2.02875 1.19209e-07 2.0828
v 2.02875 2.01549 2.0828
v 2.02875 2.01549 -2.0828
v -2.05627 2.01549 -2.0828
v -2.05627 0 -2.0828
v 2.02875 0 -2.0828
v -0.585884 0 -2.0828
v -0.585884 3.13309 -2.0828
v -0.585884 3.13309 2.0828
v -0.585884 1.19209e-07 2.0828
v -2.33811 1.80127 2.48936
v 2.35427 1.87634 2.48936
v 2.35427 1.87634 -2.48936
v -2.33811 1.80127 -2.48936
v -0.585884 3.13309 -2.48936
v -0.585884 3.13309 2.48936
v 2.38422 1.94641 -2.48936
v -0.59523 3.20872 -2.48936
v -0.59523 3.20872 2.48936
v 2.38422 1.94641 2.48936
v -2.38422 1.86193 -2.48936
v -2.38422 1.86193 2.48936
vn -1 0 0
vn 1 0 0
vn 0 0 -1
vn 0.393041 0.919521 0
vn -0.605119 0.796135 0
vn 0 -1 2.86176e-08
vn 0 -1 2.86176e-08
vn 0 0 1
vn -0.601439 0.798919 0
vn 0.390105 0.920771 0
vn 0.919505 -0.393078 0
vn -0.393044 -0.91952 0
vn -0.796123 -0.605135 0
vn 0.605121 -0.796133 0
vt 1 0.648524
vt 0.75 0.648524
mtllib Mesh_153.mtl
usemtl Default
g Default
f 7/1/1 1/1/1 2/2/1 6/2/1
f 5/2/2 4/2/2 3/1/2 8/1/2
f 8/1/3 9/1/3 10/2/3 5/2/3
f 9/1/3 7/1/3 6/2/3 10/2/3
f 5/2/4 10/2/4 11/2/4 4/2/4
f 10/2/5 6/2/5 2/2/5 11/2/5
f 3/1/6 12/1/7 9/1/7 8/1/6
f 12/1/7 1/1/7 7/1/7 9/1/7
f 4/2/8 11/2/8 12/1/8 3/1/8
f 11/2/8 2/2/8 1/1/8 12/1/8
f 20/2/9 23/2/9 24/2/9 21/2/9
f 19/2/10 20/2/10 21/2/10 22/2/10
f 20/2/3 19/2/3 15/2/3 17/2/3
f 22/2/8 21/2/8 18/2/8 14/2/8
f 19/2/11 22/2/11 14/2/11 15/2/11
f 15/2/12 14/2/12 18/2/12 17/2/12
f 23/2/3 20/2/3 17/2/3 16/2/3
f 24/2/13 23/2/13 16/2/13 13/2/13
f 21/2/8 24/2/8 13/2/8 18/2/8
f 17/2/14 18/2/14 13/2/14 16/2/14
